# xmcd CD database file
#
# Track frame offsets:
#	150
#	23550
#	55950
#	77738
#	86588
#	97538
#	120938
#	139501
#	146889
#	184539
#	213105
#	234780
#
# Disc length: 3439 seconds
#
# Revision: 1
# Processed by: cddbd v1.5.2PL0 Copyright (c) Steve Scherf et al.
# Submitted via: CDex 1.51
#
DISCID=860d6d0c
DTITLE=Femi Tomowo - Quiet Storm
DYEAR=2006
DGENRE=Jazz
TTITLE0=Wood and Strings
TTITLE1=The Pilgrim
TTITLE2=Nature's Song
TTITLE3=Redemption Dance
TTITLE4=The Fringe of the Flex Pt1
TTITLE5=Quiet Storm
TTITLE6=No Different
TTITLE7=Naked Dance
TTITLE8=Samba di Novo
TTITLE9=The Fringe of the Flex Pt2
TTITLE10=Daniel's Defiance
TTITLE11=Love's not a Rumour
EXTD=YEAR: 2006
EXTT0=
EXTT1=
EXTT2=
EXTT3=
EXTT4=
EXTT5=
EXTT6=
EXTT7=
EXTT8=
EXTT9=
EXTT10=
EXTT11=
PLAYORDER=
